<?xml version="1.0" standalone="no"?>
<!DOCTYPE svg PUBLIC "-//W3C//DTD SVG 20010904//EN"
 "http://www.w3.org/TR/2001/REC-SVG-20010904/DTD/svg10.dtd">
<svg version="1.0" xmlns="http://www.w3.org/2000/svg"
 width="1550.000000pt" height="636.000000pt" viewBox="0 0 1550.000000 636.000000"
 preserveAspectRatio="xMidYMid meet">

<g transform="translate(0.000000,636.000000) scale(0.100000,-0.100000)"
fill="#000000" stroke="none">
<path d="M863 5946 c-102 -32 -176 -97 -222 -196 l-26 -55 0 -2470 0 -2470 27
-57 c35 -75 95 -138 165 -174 l58 -29 6935 0 6935 0 47 22 c66 30 143 105 175
172 l28 56 0 2475 0 2475 -26 56 c-37 79 -90 133 -167 171 l-67 33 -6910 2
c-5695 1 -6917 -1 -6952 -11z m941 -842 c4 -86 14 -191 22 -233 49 -260 180
-500 371 -681 102 -97 104 -100 77 -191 -39 -133 -136 -255 -251 -317 l-60
-32 -114 118 c-199 205 -280 358 -316 604 -20 133 -9 281 32 423 29 100 202
465 220 465 9 0 14 -47 19 -156z m2649 -41 c53 -109 105 -229 116 -268 69
-242 45 -502 -69 -732 -56 -114 -129 -210 -248 -327 l-80 -78 -36 13 c-86 31
-212 155 -253 248 -20 47 -43 130 -43 158 0 15 36 59 113 135 118 118 181 204
247 335 81 164 117 320 127 556 4 108 10 157 18 157 6 0 55 -89 108 -197z
m3972 -558 c149 -23 135 -7 135 -152 l0 -125 -42 6 c-214 32 -443 36 -498 8
-42 -20 -49 -48 -20 -84 24 -32 89 -57 259 -102 153 -40 216 -71 268 -130 73
-83 90 -226 39 -331 -74 -150 -260 -212 -586 -194 -74 4 -163 12 -197 19 l-63
13 0 127 0 127 88 -13 c48 -8 170 -14 272 -14 156 0 190 3 220 18 96 48 12
116 -208 167 -257 61 -364 162 -365 345 -1 166 96 273 285 314 85 19 291 19
413 1z m2930 0 c149 -23 135 -7 135 -152 l0 -125 -42 6 c-119 18 -225 26 -336
26 -172 0 -220 -22 -192 -89 15 -37 69 -61 243 -107 161 -42 245 -82 296 -140
93 -106 86 -295 -14 -398 -89 -92 -219 -129 -449 -127 -82 0 -165 3 -185 6
-20 3 -64 11 -98 17 l-63 10 0 128 0 127 88 -13 c124 -19 442 -18 487 1 44 18
52 38 30 71 -22 34 -95 65 -230 98 -266 65 -369 163 -369 351 0 66 5 89 26
131 48 93 131 150 260 178 85 19 291 19 413 1z m-4915 -120 l0 -125 -160 0
-160 0 0 -425 0 -425 -135 0 -135 0 0 425 0 425 -165 0 -165 0 0 125 0 125
460 0 460 0 0 -125z m1070 0 l0 -125 -275 0 -275 0 0 -85 0 -85 223 -2 222 -3
0 -125 0 -125 -222 -3 -223 -2 0 -85 0 -85 275 0 275 0 0 -125 0 -125 -410 0
-410 0 0 550 0 550 410 0 410 0 0 -125z m2200 0 l0 -125 -160 0 -160 0 0 -425
0 -425 -135 0 -135 0 0 425 0 425 -165 0 -165 0 0 125 0 125 460 0 460 0 0
-125z m2340 -425 l0 -550 -135 0 -135 0 0 550 0 550 135 0 135 0 0 -550z
m1170 425 l0 -125 -165 0 -165 0 0 -425 0 -425 -135 0 -135 0 0 425 0 425
-160 0 -160 0 0 125 0 125 460 0 460 0 0 -125z m1070 0 l0 -125 -275 0 -275 0
0 -85 0 -85 220 0 220 0 0 -130 0 -130 -220 0 -220 0 0 -85 0 -85 275 0 275 0
0 -125 0 -125 -410 0 -410 0 0 550 0 550 410 0 410 0 0 -125z m-11030 8 c75
-18 212 -79 267 -119 79 -57 173 -157 173 -184 1 -56 32 -169 66 -238 64 -130
174 -239 307 -303 l47 -23 0 -114 c0 -136 18 -223 72 -351 68 -161 81 -267 52
-409 -30 -147 -104 -260 -244 -373 l-87 -71 -13 -74 c-7 -41 -16 -77 -20 -79
-4 -2 -26 32 -49 75 -23 44 -45 80 -48 80 -4 0 -32 -25 -64 -55 -64 -61 -137
-99 -219 -115 -74 -14 -814 -13 -882 1 -77 17 -144 54 -210 117 -32 30 -60 53
-62 51 -1 -2 -23 -42 -48 -88 l-46 -84 -10 49 c-6 27 -13 65 -17 85 -6 31 -21
48 -92 105 -179 144 -259 303 -257 514 1 93 4 116 34 195 97 267 93 250 98
402 l4 142 40 16 c102 41 218 145 286 258 42 69 79 177 88 256 6 60 8 62 80
130 124 118 289 198 454 221 82 11 216 4 300 -17z m7100 -443 l0 -110 -235 0
-235 0 0 110 0 110 235 0 235 0 0 -110z m-8973 -414 c141 -48 252 -113 374
-218 88 -75 93 -84 73 -142 -9 -25 -19 -46 -22 -46 -3 0 -17 11 -31 24 -67 61
-185 123 -308 161 l-23 6 0 -313 c0 -172 4 -339 10 -371 10 -66 43 -137 77
-169 30 -28 29 -34 -9 -54 -18 -9 -47 -29 -64 -46 l-31 -29 -25 33 c-41 53
-69 116 -84 187 -11 51 -14 170 -14 534 0 257 1 467 3 467 2 0 35 -11 74 -24z
m3433 -448 c0 -522 -3 -549 -62 -660 -81 -152 -260 -259 -432 -258 -42 0 -175
25 -184 35 -3 2 17 28 44 57 96 102 160 218 190 346 20 81 22 236 5 315 -13
59 -13 59 16 89 35 37 117 98 132 98 15 0 15 -430 0 -485 -6 -22 -28 -56 -48
-76 l-37 -37 28 -56 c16 -31 31 -56 35 -56 17 0 84 55 107 88 61 89 61 86 64
474 l3 357 -70 -24 c-90 -30 -198 -87 -249 -131 -22 -19 -42 -34 -45 -34 -3 0
-13 20 -22 45 -18 45 -18 45 9 79 36 48 171 154 261 205 63 36 221 100 248
101 4 0 7 -213 7 -472z m-3169 -7 c24 -16 59 -45 77 -64 32 -33 33 -35 22 -83
-17 -72 -14 -238 4 -317 9 -38 32 -102 51 -144 19 -42 35 -77 35 -79 0 -1 -19
8 -42 21 -24 14 -64 28 -90 31 l-47 6 15 29 c14 29 14 30 -25 67 -23 22 -43
53 -50 77 -13 47 -15 485 -3 485 5 0 28 -13 53 -29z m6415 -316 c27 -188 43
-270 47 -250 3 17 21 144 38 283 l33 252 78 0 c43 0 78 -3 78 -7 1 -24 79
-545 82 -548 2 -2 19 114 37 258 18 144 35 270 38 280 4 14 16 17 79 17 69 0
74 -1 74 -21 0 -29 -139 -1100 -145 -1117 -3 -9 -26 -12 -82 -10 l-78 3 -26
185 c-47 330 -52 365 -55 355 -2 -5 -17 -116 -33 -245 -17 -129 -33 -250 -36
-267 l-6 -33 -79 0 c-44 0 -80 2 -80 4 0 9 -151 1083 -156 1114 l-6 33 78 -3
79 -3 41 -280z m1204 210 l0 -75 -110 0 -110 0 0 -120 0 -120 110 0 110 0 0
-75 0 -75 -110 0 -110 0 0 -225 0 -225 110 0 110 0 0 -80 0 -80 -187 2 -188 3
-3 573 -2 572 190 0 190 0 0 -75z m496 64 c53 -14 114 -77 132 -137 13 -43 15
-265 3 -296 -5 -13 1 -34 18 -65 26 -46 26 -48 26 -271 0 -218 -1 -226 -23
-266 -49 -84 -120 -108 -307 -102 l-100 3 -3 560 c-1 308 0 566 3 573 6 16
188 17 251 1z m719 -13 c55 -23 99 -69 127 -130 23 -50 23 -56 23 -421 0 -414
-1 -419 -67 -491 -59 -64 -121 -84 -263 -84 l-115 0 0 576 0 576 128 -4 c90
-3 139 -10 167 -22z m765 -51 l0 -75 -110 0 -110 0 0 -120 0 -120 110 0 110 0
0 -75 0 -75 -110 0 -110 0 0 -225 0 -225 110 0 110 0 0 -80 0 -80 -185 0 -185
0 0 575 0 575 185 0 185 0 0 -75z m400 68 c2 -28 78 -545 81 -548 3 -2 19 114
37 258 19 144 36 270 38 280 5 14 17 17 80 17 67 0 74 -2 74 -20 0 -26 -140
-1101 -145 -1117 -3 -9 -28 -13 -80 -13 -52 0 -77 4 -80 13 -2 6 -40 265 -83
575 l-78 562 78 0 c43 0 78 -3 78 -7z m-9922 -747 c90 -47 142 -168 142 -331
0 -225 -101 -376 -235 -351 -44 9 -109 65 -136 118 -89 175 -44 475 85 558 37
23 105 26 144 6z m722 -340 c30 -16 73 -35 94 -41 22 -7 41 -16 43 -22 6 -17
-108 -128 -176 -171 -35 -23 -88 -51 -120 -63 -64 -24 -199 -54 -208 -46 -3 3
26 37 65 75 73 74 134 149 197 245 21 32 41 56 44 55 3 -2 31 -16 61 -32z
m1337 -23 c52 -83 137 -187 206 -255 33 -32 58 -60 55 -63 -10 -10 -155 24
-218 50 -35 15 -91 45 -124 68 -65 44 -166 142 -166 161 0 7 22 18 48 24 26 7
70 26 97 42 28 16 53 29 58 29 4 1 24 -25 44 -56z m-404 -55 c2 -7 -14 -39
-35 -70 l-39 -58 -243 0 -243 0 -41 62 c-22 34 -39 65 -36 70 3 4 146 8 319 8
242 0 314 -3 318 -12z m138 -298 c-12 -57 -21 -104 -21 -106 0 -2 -7 -4 -15
-4 -8 0 -18 16 -24 38 -44 169 -43 152 -13 199 l27 43 33 -34 34 -33 -21 -103z
m-833 125 c25 -39 26 -26 -19 -197 -10 -40 -34 -51 -43 -20 -3 9 -13 57 -22
105 l-17 88 28 29 c16 17 34 30 39 30 6 0 21 -16 34 -35z m623 -167 l17 -68
-260 0 -260 0 6 32 c3 18 11 49 17 70 l10 38 226 -2 227 -3 17 -67z m-831 -20
c18 -104 42 -145 95 -169 43 -19 67 -20 507 -17 461 3 463 3 494 25 37 26 56
70 74 166 7 37 14 67 16 67 4 0 106 -50 111 -54 2 -2 -7 -51 -19 -110 -24
-120 -43 -156 -106 -201 l-44 -30 -521 -3 c-360 -2 -534 0 -560 8 -49 14 -99
59 -120 107 -14 32 -59 225 -54 229 7 6 103 53 108 54 3 0 12 -33 19 -72z"/>
<path d="M2955 4258 c-50 -18 -132 -77 -161 -115 -79 -104 -97 -249 -45 -358
35 -75 100 -140 171 -174 47 -22 69 -26 150 -26 82 0 102 4 144 25 66 34 134
103 165 170 22 47 26 69 26 150 0 112 -19 162 -91 236 -66 68 -140 98 -244
101 -47 1 -98 -3 -115 -9z m205 -143 c71 -36 113 -109 113 -195 0 -60 -11 -90
-52 -133 -128 -139 -359 -55 -363 131 -2 71 18 117 69 161 66 59 160 73 233
36z"/>
<path d="M3016 3968 c-36 -51 -6 -108 56 -108 51 0 78 79 40 113 -27 25 -78
22 -96 -5z"/>
<path d="M2176 3491 c-15 -27 -37 -114 -30 -121 5 -5 50 -21 99 -36 109 -32
315 -44 417 -25 103 20 208 53 208 66 0 15 -31 108 -39 117 -3 4 -41 -4 -83
-17 -164 -52 -331 -52 -494 -1 -41 13 -76 21 -78 17z"/>
<path d="M3280 3437 c-11 -34 -17 -64 -13 -68 5 -4 49 -20 98 -35 83 -26 104
-28 260 -28 171 -1 229 8 347 53 l27 10 -21 63 c-11 35 -22 64 -22 65 -1 1
-38 -9 -81 -22 -170 -53 -336 -53 -500 -1 l-74 24 -21 -61z"/>
<path d="M2827 3235 c-147 -103 -325 -106 -609 -9 l-71 24 5 -183 c4 -179 5
-185 35 -249 17 -36 47 -84 68 -106 39 -44 134 -97 191 -108 19 -3 34 -7 34
-9 0 -2 -9 -22 -20 -46 -29 -66 -27 -161 6 -227 64 -129 225 -184 355 -120 52
27 52 27 89 8 88 -45 213 -46 313 -2 l42 18 49 -24 c61 -31 162 -34 217 -8
102 48 160 139 160 250 0 43 -6 80 -19 109 l-19 43 50 12 c135 32 242 155 267
303 9 57 15 339 7 339 -2 0 -37 -11 -78 -25 -138 -48 -231 -67 -324 -68 -117
-2 -183 16 -260 68 l-63 43 -46 -47 -47 -48 29 -25 c23 -19 31 -36 36 -74 7
-48 6 -50 -36 -90 -24 -23 -60 -54 -81 -69 -46 -34 -56 -31 -145 51 l-64 57 7
46 c4 31 16 56 36 76 l29 31 -48 46 -47 46 -48 -33z m-269 -215 c57 0 123 5
148 11 25 6 48 9 51 5 10 -10 -16 -146 -36 -184 -39 -75 -108 -116 -196 -116
-143 0 -235 103 -235 264 l0 57 83 -18 c49 -11 123 -19 185 -19z m1282 -23 c0
-68 -16 -123 -48 -170 -76 -113 -245 -124 -345 -24 -45 45 -61 85 -73 181 l-7
58 34 -8 c55 -14 317 -8 374 8 28 8 53 13 58 11 4 -2 7 -28 7 -56z m-866 -212
l93 -65 74 51 c41 28 82 58 91 66 18 16 38 10 38 -11 0 -6 13 -32 29 -57 l28
-45 -57 -22 c-97 -38 -97 -38 -61 -110 l31 -62 60 30 c99 50 183 37 231 -36
47 -71 28 -159 -42 -194 -64 -33 -105 -25 -166 33 l-32 30 -83 -38 c-116 -54
-172 -54 -285 -1 l-82 39 -40 -36 c-63 -57 -135 -61 -185 -10 -34 34 -48 87
-36 133 13 45 27 62 70 89 48 29 109 27 181 -5 33 -15 61 -25 63 -23 5 6 56
108 56 112 0 2 -31 19 -70 36 -66 31 -84 51 -59 67 6 3 19 26 29 50 11 24 22
44 25 44 3 0 47 -29 99 -65z"/>
<path d="M2462 2924 c-28 -19 -30 -74 -4 -97 42 -39 112 -9 112 46 0 55 -61
84 -108 51z"/>
<path d="M3580 2920 c-59 -59 28 -151 90 -95 25 23 26 76 2 98 -25 23 -68 21
-92 -3z"/>
<path d="M9670 2766 l0 -126 35 0 c46 0 55 20 55 117 0 96 -14 127 -58 131
l-32 3 0 -125z"/>
<path d="M9670 2270 l0 -210 49 0 c29 0 53 6 60 14 8 9 11 73 9 207 l-3 194
-57 3 -58 3 0 -211z"/>
<path d="M10340 2475 l0 -415 41 0 c31 0 47 6 70 29 l29 29 0 352 c0 222 -4
358 -10 371 -14 25 -62 49 -100 49 l-30 0 0 -415z"/>
<path d="M1623 2114 c-22 -48 -26 -73 -27 -143 0 -94 22 -177 54 -206 18 -16
20 -16 39 16 49 81 54 247 9 336 -12 26 -29 49 -36 51 -7 2 -23 -20 -39 -54z"/>
</g>
</svg>
