<?xml version="1.0" encoding="UTF-8"?>
<!DOCTYPE svg PUBLIC "-//W3C//DTD SVG 1.1//EN" "http://www.w3.org/Graphics/SVG/1.1/DTD/svg11.dtd">
<svg xmlns="http://www.w3.org/2000/svg" version="1.1" width="632px" height="620px" style="shape-rendering:geometricPrecision; text-rendering:geometricPrecision; image-rendering:optimizeQuality; fill-rule:evenodd; clip-rule:evenodd" xmlns:xlink="http://www.w3.org/1999/xlink">
<!-- <g><path style="opacity:1" fill="#fefefe" d="M -0.5,-0.5 C 210.167,-0.5 420.833,-0.5 631.5,-0.5C 631.5,206.167 631.5,412.833 631.5,619.5C 420.833,619.5 210.167,619.5 -0.5,619.5C -0.5,412.833 -0.5,206.167 -0.5,-0.5 Z"/></g> -->
<g><path style="opacity:1" fill="#111111" d="M 294.5,3.5 C 420.536,-0.91926 514.37,51.4141 576,160.5C 589.347,184.86 601.347,209.86 612,235.5C 625.489,272.069 629.489,309.736 624,348.5C 612.332,445.766 563.832,517.932 478.5,565C 440.804,586.121 400.804,601.121 358.5,610C 309.762,616.066 261.429,613.733 213.5,603C 162.793,589.575 122.96,561.075 94,517.5C 65.2059,472.575 42.8726,424.575 27,373.5C 18.5073,343.721 15.174,313.387 17,282.5C 18.9779,238.94 27.9779,196.94 44,156.5C 68.1057,98.0611 109.272,56.5611 167.5,32C 208.467,15.8945 250.801,6.39454 294.5,3.5 Z"/></g>
<g><path style="opacity:1" fill="#efefef" d="M 263.5,120.5 C 263.604,141.218 271.271,158.718 286.5,173C 285.312,181.907 280.645,188.074 272.5,191.5C 256.677,180.297 250.177,164.963 253,145.5C 255.406,136.691 258.906,128.357 263.5,120.5 Z"/></g>
<g><path style="opacity:1" fill="#efefef" d="M 377.5,120.5 C 393.62,142.267 393.453,163.933 377,185.5C 374.95,187.888 372.616,189.888 370,191.5C 360.556,188.073 355.89,181.407 356,171.5C 371.424,158.082 378.591,141.082 377.5,120.5 Z"/></g>
<g><path style="opacity:1" fill="#ededed" d="M 311.5,158.5 C 326.482,156.048 338.982,160.382 349,171.5C 350.288,183.451 356.288,192.117 367,197.5C 367.341,206.567 369.341,215.233 373,223.5C 375.734,237.693 371.067,248.693 359,256.5C 357.956,258.715 357.29,261.048 357,263.5C 355.92,261.004 354.586,258.67 353,256.5C 349.707,259.787 345.873,262.287 341.5,264C 327.833,264.667 314.167,264.667 300.5,264C 296.103,262.383 292.269,259.883 289,256.5C 287.92,258.996 286.586,261.33 285,263.5C 284.229,260.81 283.396,258.144 282.5,255.5C 270.258,247.595 265.758,236.595 269,222.5C 272.777,214.735 274.61,206.401 274.5,197.5C 285.478,192.341 291.645,183.675 293,171.5C 298.261,165.717 304.428,161.384 311.5,158.5 Z"/></g>
<g><path style="opacity:1" fill="#151515" d="M 316.5,164.5 C 330.314,164.146 336.814,170.813 336,184.5C 331.616,194.07 324.449,197.236 314.5,194C 305.296,188.559 303.13,181.059 308,171.5C 310.441,168.546 313.275,166.213 316.5,164.5 Z"/></g>
<g><path style="opacity:1" fill="#e5e5e5" d="M 318.5,170.5 C 326.039,169.869 330.039,173.369 330.5,181C 329.317,186.528 325.817,189.361 320,189.5C 312.689,186.922 310.356,181.922 313,174.5C 314.812,173.023 316.645,171.69 318.5,170.5 Z"/></g>
<g><path style="opacity:1" fill="#1a1a1a" d="M 318.5,177.5 C 320.167,177.5 321.833,177.5 323.5,177.5C 324.085,180.261 323.085,181.927 320.5,182.5C 317.831,181.51 317.165,179.844 318.5,177.5 Z"/></g>
<g><path style="opacity:1" fill="#b6b6b6" d="M 245.5,197.5 C 243.517,211.461 242.85,225.794 243.5,240.5C 242.504,226.01 242.171,211.343 242.5,196.5C 243.791,196.263 244.791,196.596 245.5,197.5 Z"/></g>
<g><path style="opacity:1" fill="#e6e6e6" d="M 392.5,236.5 C 393.823,226.659 393.823,216.659 392.5,206.5C 391.893,206.624 391.56,206.957 391.5,207.5C 386.202,209.234 381.368,211.901 377,215.5C 375.513,213.728 375.18,211.728 376,209.5C 382.648,203.191 390.314,198.524 399,195.5C 399.667,210.167 399.667,224.833 399,239.5C 394.457,255.017 384.624,260.35 369.5,255.5C 378.704,245.689 382.204,234.022 380,220.5C 381.815,218.595 383.815,216.928 386,215.5C 386.667,222.833 386.667,230.167 386,237.5C 385.464,239.869 384.297,241.869 382.5,243.5C 384.645,248.571 387.145,248.571 390,243.5C 391.411,241.35 392.245,239.016 392.5,236.5 Z"/></g>
<g><path style="opacity:1" fill="#e7e7e7" d="M 245.5,197.5 C 253.44,199.607 260.274,203.607 266,209.5C 266.635,211.635 266.301,213.635 265,215.5C 260.726,211.113 255.559,208.446 249.5,207.5C 249.333,218.172 249.5,228.839 250,239.5C 251.047,241.762 252.213,243.929 253.5,246C 251.902,249.131 249.569,249.964 246.5,248.5C 244.924,246.021 243.924,243.354 243.5,240.5C 242.85,225.794 243.517,211.461 245.5,197.5 Z"/></g>
<g><path style="opacity:1" fill="#181818" d="M 309.5,198.5 C 314.073,204.183 312.407,207.016 304.5,207C 295.953,208.112 287.62,207.279 279.5,204.5C 280.098,203.205 280.598,201.872 281,200.5C 281.725,199.941 282.558,199.608 283.5,199.5C 292.433,202.423 301.099,202.09 309.5,198.5 Z"/></g>
<g><path style="opacity:1" fill="#181818" d="M 359.5,198.5 C 364.073,204.183 362.407,207.016 354.5,207C 345.953,208.112 337.62,207.279 329.5,204.5C 330.098,203.205 330.598,201.872 331,200.5C 331.725,199.941 332.558,199.608 333.5,199.5C 342.433,202.423 351.099,202.09 359.5,198.5 Z"/></g>
<g><path style="opacity:1" fill="#bbbbbb" d="M 391.5,207.5 C 391.56,206.957 391.893,206.624 392.5,206.5C 393.823,216.659 393.823,226.659 392.5,236.5C 392.827,226.652 392.494,216.986 391.5,207.5 Z"/></g>
<g><path style="opacity:1" fill="#151515" d="M 311.5,209.5 C 315.923,210.618 316.756,212.618 314,215.5C 313.446,220.471 315.613,223.804 320.5,225.5C 328.404,223.51 330.071,219.343 325.5,213C 328.381,208.578 331.381,208.578 334.5,213C 337.372,213.315 340.205,213.815 343,214.5C 349.264,213.559 355.43,212.225 361.5,210.5C 363.734,221.008 361.067,229.841 353.5,237C 351.655,238.128 349.655,238.628 347.5,238.5C 348.463,242.796 348.629,247.129 348,251.5C 343.137,257.777 337.137,259.111 330,255.5C 324.027,258.105 318.027,258.105 312,255.5C 304.341,259.478 298.341,257.811 294,250.5C 293.498,246.759 293.498,243.092 294,239.5C 281.138,233.762 276.971,224.095 281.5,210.5C 289.468,214.497 297.801,215.33 306.5,213C 308.584,212.303 310.251,211.136 311.5,209.5 Z"/></g>
<g><path style="opacity:1" fill="#4a4b4a" d="M 256.5,216.5 C 255.51,222.645 255.177,228.978 255.5,235.5C 254.182,228.989 254.182,222.322 255.5,215.5C 256.107,215.624 256.44,215.957 256.5,216.5 Z"/></g>
<g><path style="opacity:1" fill="#e9e9e9" d="M 256.5,216.5 C 258.392,217.702 260.226,219.035 262,220.5C 260.224,230.106 261.724,239.106 266.5,247.5C 266.333,247.833 266.167,248.167 266,248.5C 263.808,246.765 261.308,245.598 258.5,245C 259.311,242.709 258.477,240.875 256,239.5C 255.51,238.207 255.343,236.873 255.5,235.5C 255.177,228.978 255.51,222.645 256.5,216.5 Z"/></g>
<g><path style="opacity:1" fill="#eaeaea" d="M 286.5,218.5 C 292.885,220.573 299.385,220.906 306,219.5C 307.708,224.537 306.208,228.704 301.5,232C 290.684,234.019 285.684,229.519 286.5,218.5 Z"/></g>
<g><path style="opacity:1" fill="#e9e9e9" d="M 353.5,218.5 C 356.603,229.246 352.27,233.746 340.5,232C 335.876,228.998 334.21,224.831 335.5,219.5C 341.718,220.994 347.718,220.66 353.5,218.5 Z"/></g>
<g><path style="opacity:1" fill="#1c1c1c" d="M 294.5,223.5 C 298.35,223.701 299.35,225.534 297.5,229C 292.722,229.073 291.722,227.24 294.5,223.5 Z"/></g>
<g><path style="opacity:1" fill="#1e1e1e" d="M 344.5,223.5 C 348.35,223.701 349.35,225.534 347.5,229C 342.722,229.073 341.722,227.24 344.5,223.5 Z"/></g>
<g><path style="opacity:1" fill="#ebebeb" d="M 311.5,227.5 C 314.695,229.353 317.861,231.353 321,233.5C 323.167,232 325.333,230.5 327.5,229C 328.635,228.251 329.635,228.417 330.5,229.5C 331.04,230.748 331.707,231.915 332.5,233C 330.126,233.848 328.126,235.181 326.5,237C 327.069,241.274 329.069,242.274 332.5,240C 340.333,238.5 343.5,241.667 342,249.5C 337.852,251.975 333.852,251.641 330,248.5C 323.819,252.462 317.652,252.462 311.5,248.5C 307.823,251.87 303.989,252.203 300,249.5C 299.169,239.528 303.335,236.862 312.5,241.5C 313.624,240.086 314.624,238.586 315.5,237C 313.283,235.732 311.283,234.232 309.5,232.5C 310.95,231.15 311.617,229.484 311.5,227.5 Z"/></g>
<g><path style="opacity:1" fill="#ececec" d="M 255.5,251.5 C 261.798,251.293 265.631,254.293 267,260.5C 267.789,266.237 267.456,271.903 266,277.5C 263.459,282.069 259.625,283.569 254.5,282C 252.623,279.749 251.123,277.249 250,274.5C 249.333,269.5 249.333,264.5 250,259.5C 251.273,256.403 253.107,253.736 255.5,251.5 Z"/></g>
<g><path style="opacity:1" fill="#1a1a1a" d="M 257.5,258.5 C 258.496,258.414 259.329,258.748 260,259.5C 262.318,265.466 261.818,271.133 258.5,276.5C 256.112,273.805 255.112,270.638 255.5,267C 255.362,263.896 256.029,261.062 257.5,258.5 Z"/></g>
<g><path style="opacity:1" fill="#e7e7e7" d="M 289.5,266.5 C 293.583,267.115 296.75,268.782 299,271.5C 293.531,278.652 286.364,282.152 277.5,282C 282.606,277.586 286.606,272.419 289.5,266.5 Z"/></g>
<g><path style="opacity:1" fill="#e7e7e7" d="M 348.5,266.5 C 349.978,266.238 351.311,266.571 352.5,267.5C 355.665,272.978 359.665,277.812 364.5,282C 355.095,282.131 347.762,278.297 342.5,270.5C 345.022,269.697 347.022,268.364 348.5,266.5 Z"/></g>
<g><path style="opacity:1" fill="#efefef" d="M 306.5,270.5 C 316.19,270.168 325.856,270.502 335.5,271.5C 334.376,272.914 333.376,274.414 332.5,276C 324.833,276.667 317.167,276.667 309.5,276C 308.242,274.259 307.242,272.426 306.5,270.5 Z"/></g>
<g><path style="opacity:1" fill="#e1e1e1" d="M 301.5,277.5 C 303.89,277.685 304.89,279.018 304.5,281.5C 302.69,292.13 301.023,291.963 299.5,281C 299.978,279.697 300.645,278.531 301.5,277.5 Z"/></g>
<g><path style="opacity:1" fill="#d7d7d7" d="M 338.5,276.5 C 340.876,277.512 341.876,279.345 341.5,282C 341.379,284.653 340.712,287.153 339.5,289.5C 336.642,285.18 336.309,280.846 338.5,276.5 Z"/></g>
<g><path style="opacity:1" fill="#919191" d="M 310.5,283.5 C 313.817,282.835 317.317,282.501 321,282.5C 324.902,282.512 328.402,283.179 331.5,284.5C 324.588,283.538 317.588,283.205 310.5,283.5 Z"/></g>
<g><path style="opacity:1" fill="#e9e9e9" d="M 310.5,283.5 C 317.588,283.205 324.588,283.538 331.5,284.5C 331.421,285.93 331.754,287.264 332.5,288.5C 324.862,289.497 317.196,289.831 309.5,289.5C 309.517,287.435 309.85,285.435 310.5,283.5 Z"/></g>
<g><path style="opacity:1" fill="#efefef" d="M 347.5,283.5 C 349.518,284.175 351.184,285.341 352.5,287C 351.815,289.795 351.315,292.628 351,295.5C 350.215,297.286 349.049,298.786 347.5,300C 338.93,301.139 330.264,301.639 321.5,301.5C 312.429,301.625 303.429,301.125 294.5,300C 290.743,295.802 289.41,290.969 290.5,285.5C 291.736,284.754 293.07,284.421 294.5,284.5C 294.626,288.359 295.959,291.692 298.5,294.5C 313.155,295.666 327.822,295.833 342.5,295C 345.949,291.935 347.616,288.102 347.5,283.5 Z"/></g>
<g><path style="opacity:1" fill="#f1f1f1" d="M 141.5,341.5 C 143.199,341.34 144.866,341.506 146.5,342C 147.692,343.912 148.692,345.912 149.5,348C 154.495,347.918 159.495,347.918 164.5,348C 167.07,350.718 167.07,353.385 164.5,356C 159.258,356.965 154.091,358.132 149,359.5C 148.138,381.065 148.972,402.565 151.5,424C 151.333,427.167 151.167,430.333 151,433.5C 149.695,436.306 147.528,437.14 144.5,436C 143.874,435.25 143.374,434.416 143,433.5C 140.25,409.249 138.917,384.916 139,360.5C 135.924,359.712 132.758,359.212 129.5,359C 124.986,356.55 124.652,353.884 128.5,351C 131.5,350.667 134.5,350.333 137.5,350C 137.918,346.65 139.252,343.816 141.5,341.5 Z"/></g>
<g><path style="opacity:1" fill="#eeeeee" d="M 282.5,341.5 C 288.268,340.267 290.934,342.6 290.5,348.5C 295.481,347.668 300.481,347.502 305.5,348C 309.02,350.237 309.353,352.904 306.5,356C 301.283,357.076 296.117,358.243 291,359.5C 290.076,381.905 290.909,404.238 293.5,426.5C 293.333,429.167 293.167,431.833 293,434.5C 289.195,437.539 286.195,436.872 284,432.5C 281.869,408.546 280.536,384.546 280,360.5C 276.589,359.707 273.089,359.207 269.5,359C 266.833,356.333 266.833,353.667 269.5,351C 272.5,350.667 275.5,350.333 278.5,350C 279.894,347.183 281.227,344.35 282.5,341.5 Z"/></g>
<g><path style="opacity:1" fill="#eeeeee" d="M 438.5,341.5 C 443.75,340.14 446.417,342.14 446.5,347.5C 447.167,347.833 447.833,348.167 448.5,348.5C 452.799,347.458 457.132,347.291 461.5,348C 464.683,350.479 465.016,353.146 462.5,356C 457.264,357.439 451.931,358.272 446.5,358.5C 446.01,382.066 447.01,405.566 449.5,429C 449.624,431.59 448.958,433.923 447.5,436C 444.044,436.855 441.544,435.689 440,432.5C 437.891,408.548 436.557,384.548 436,360.5C 432.589,359.707 429.089,359.207 425.5,359C 422.966,356.413 422.966,353.747 425.5,351C 428.89,350.754 432.223,350.254 435.5,349.5C 436.081,346.594 437.081,343.927 438.5,341.5 Z"/></g>
<g><path style="opacity:1" fill="#e3e3e3" d="M 424.5,360.5 C 430.168,359.671 432.668,362.005 432,367.5C 427.695,371.615 424.528,370.781 422.5,365C 423.267,363.53 423.933,362.03 424.5,360.5 Z"/></g>
<g><path style="opacity:1" fill="#ededed" d="M 190.5,378.5 C 205.665,376.823 214.832,383.49 218,398.5C 219.163,403.762 218.329,408.596 215.5,413C 213.285,414.044 210.952,414.71 208.5,415C 199.671,415.029 191.004,415.696 182.5,417C 183.977,421.485 186.643,425.151 190.5,428C 194.833,428.333 199.167,428.667 203.5,429C 206.341,432.646 205.674,435.646 201.5,438C 185.367,439.679 175.867,432.512 173,416.5C 170.524,399.796 176.357,387.129 190.5,378.5 Z"/></g>
<g><path style="opacity:1" fill="#ededed" d="M 488.5,378.5 C 502.266,377.082 511.099,383.082 515,396.5C 515.667,400.833 515.667,405.167 515,409.5C 513.013,413.247 509.846,415.081 505.5,415C 497.173,415.5 488.84,415.666 480.5,415.5C 480.679,421.69 483.679,425.857 489.5,428C 493.167,428.333 496.833,428.667 500.5,429C 503.703,435.676 501.37,438.843 493.5,438.5C 481.302,437.806 473.802,431.473 471,419.5C 467.065,401.396 472.898,387.729 488.5,378.5 Z"/></g>
<g><path style="opacity:1" fill="#ececec" d="M 243.5,380.5 C 250.196,379.849 256.529,381.015 262.5,384C 268.299,388.923 267.799,392.757 261,395.5C 258.844,394.015 256.677,392.515 254.5,391C 247.206,389.021 241.206,390.854 236.5,396.5C 235.353,398.765 235.186,401.098 236,403.5C 236.725,404.059 237.558,404.392 238.5,404.5C 244.074,402.753 249.741,401.419 255.5,400.5C 268.663,400.5 275.997,407 277.5,420C 275.985,429.194 270.985,435.861 262.5,440C 252.95,444.916 243.617,444.583 234.5,439C 228.592,434.583 225.758,428.75 226,421.5C 227.808,419.604 229.975,419.104 232.5,420C 241.509,436.356 252.675,437.856 266,424.5C 269.044,418.432 267.544,413.932 261.5,411C 258.167,410.333 254.833,410.333 251.5,411C 246.901,412.478 242.234,413.645 237.5,414.5C 229.645,413.822 225.645,409.489 225.5,401.5C 226.523,390.149 232.523,383.149 243.5,380.5 Z"/></g>
<g><path style="opacity:1" fill="#ededed" d="M 379.5,380.5 C 387.988,379.162 395.488,381.162 402,386.5C 404.741,391.273 403.407,394.273 398,395.5C 395.844,394.015 393.677,392.515 391.5,391C 384.755,389.298 378.922,390.798 374,395.5C 372.41,397.65 371.743,399.983 372,402.5C 372.804,403.804 373.971,404.471 375.5,404.5C 381.074,402.753 386.741,401.419 392.5,400.5C 411.7,402.576 417.866,412.576 411,430.5C 399.883,443.189 386.716,446.023 371.5,439C 365.54,434.583 362.707,428.75 363,421.5C 364.808,419.604 366.975,419.104 369.5,420C 378.644,436.394 389.977,437.894 403.5,424.5C 406.53,417.181 404.196,412.681 396.5,411C 393.5,410.333 390.5,410.333 387.5,411C 381.405,414.407 375.072,415.074 368.5,413C 365.337,411.52 363.504,409.02 363,405.5C 361.645,397.845 363.812,391.345 369.5,386C 372.767,383.87 376.1,382.037 379.5,380.5 Z"/></g>
<g><path style="opacity:1" fill="#eeeeee" d="M 424.5,379.5 C 427.325,379.081 429.491,380.081 431,382.5C 431.097,397.88 431.931,413.214 433.5,428.5C 433.042,434.664 430.209,435.997 425,432.5C 423.873,429.623 423.206,426.623 423,423.5C 422.167,409.502 421.833,395.502 422,381.5C 422.995,380.934 423.828,380.267 424.5,379.5 Z"/></g>
<g><path style="opacity:1" fill="#131313" d="M 194.5,387.5 C 204.685,389.035 209.352,395.035 208.5,405.5C 199.808,405.831 191.141,405.498 182.5,404.5C 184.266,397.096 188.266,391.43 194.5,387.5 Z"/></g>
<g><path style="opacity:1" fill="#141414" d="M 491.5,387.5 C 499.255,387.814 504.088,391.814 506,399.5C 506.651,401.235 506.485,402.902 505.5,404.5C 497.193,405.498 488.86,405.831 480.5,405.5C 481.123,397.578 484.79,391.578 491.5,387.5 Z"/></g>
<g><path style="opacity:1" fill="#ededed" d="M 343.5,390.5 C 347.257,390.071 350.757,390.737 354,392.5C 356.155,395.54 355.988,398.373 353.5,401C 342.663,400.415 331.829,400.915 321,402.5C 314.805,402.553 312.971,399.72 315.5,394C 324.897,392.27 334.231,391.103 343.5,390.5 Z"/></g>
<g><path style="opacity:1" fill="#ededed" d="M 231.5,462.5 C 233.5,462.5 235.5,462.5 237.5,462.5C 240.203,484.113 242.703,484.446 245,463.5C 247.041,462.577 249.208,462.244 251.5,462.5C 252.156,468.592 253.323,474.592 255,480.5C 256.345,474.784 257.845,469.118 259.5,463.5C 261.396,462.534 263.396,462.201 265.5,462.5C 262.627,473.784 259.961,485.118 257.5,496.5C 255.647,497.76 253.814,497.76 252,496.5C 251.291,491.271 249.958,486.271 248,481.5C 246.362,486.386 245.195,491.386 244.5,496.5C 242.533,496.739 240.699,496.406 239,495.5C 236.021,484.588 233.521,473.588 231.5,462.5 Z"/></g>
<g><path style="opacity:1" fill="#eeeeee" d="M 291.5,462.5 C 291.5,464.167 291.5,465.833 291.5,467.5C 288.941,467.198 286.607,467.532 284.5,468.5C 283.532,470.607 283.198,472.941 283.5,475.5C 286.167,475.5 288.833,475.5 291.5,475.5C 291.5,477.5 291.5,479.5 291.5,481.5C 288.833,481.5 286.167,481.5 283.5,481.5C 283.5,484.167 283.5,486.833 283.5,489.5C 286.167,489.5 288.833,489.5 291.5,489.5C 291.5,491.833 291.5,494.167 291.5,496.5C 286.833,496.5 282.167,496.5 277.5,496.5C 277.5,485.167 277.5,473.833 277.5,462.5C 282.167,462.5 286.833,462.5 291.5,462.5 Z"/></g>
<g><path style="opacity:1" fill="#eaeaea" d="M 303.5,462.5 C 316.551,460.703 320.885,465.87 316.5,478C 321.833,483.667 321.833,489.333 316.5,495C 312.27,496.29 307.936,496.79 303.5,496.5C 303.5,485.167 303.5,473.833 303.5,462.5 Z"/></g>
<g><path style="opacity:1" fill="#e9e9e9" d="M 331.5,462.5 C 349.712,461.178 356.378,469.511 351.5,487.5C 350.154,492.679 346.821,495.513 341.5,496C 338.183,496.498 334.85,496.665 331.5,496.5C 331.5,485.167 331.5,473.833 331.5,462.5 Z"/></g>
<g><path style="opacity:1" fill="#ececec" d="M 378.5,462.5 C 378.5,464.167 378.5,465.833 378.5,467.5C 375.941,467.198 373.607,467.532 371.5,468.5C 370.532,470.607 370.198,472.941 370.5,475.5C 373.167,475.5 375.833,475.5 378.5,475.5C 378.5,477.5 378.5,479.5 378.5,481.5C 375.833,481.5 373.167,481.5 370.5,481.5C 370.5,484.167 370.5,486.833 370.5,489.5C 373.187,489.336 375.854,489.503 378.5,490C 379.576,491.726 379.743,493.559 379,495.5C 374.263,496.469 369.43,496.803 364.5,496.5C 364.5,485.167 364.5,473.833 364.5,462.5C 369.167,462.5 373.833,462.5 378.5,462.5 Z"/></g>
<g><path style="opacity:1" fill="#eaeaea" d="M 390.5,462.5 C 392.604,462.201 394.604,462.534 396.5,463.5C 398.022,470.256 399.855,476.922 402,483.5C 403.758,476.873 405.425,470.206 407,463.5C 409.064,462.409 411.231,462.242 413.5,463C 410.967,474.467 407.967,485.8 404.5,497C 402.559,497.743 400.726,497.576 399,496.5C 395.85,485.232 393.016,473.899 390.5,462.5 Z"/></g>
<g><path style="opacity:1" fill="#7f7f7f" d="M 291.5,462.5 C 292.461,464.265 292.795,466.265 292.5,468.5C 289.833,468.5 287.167,468.5 284.5,468.5C 286.607,467.532 288.941,467.198 291.5,467.5C 291.5,465.833 291.5,464.167 291.5,462.5 Z"/></g>
<g><path style="opacity:1" fill="#1e1e1e" d="M 309.5,467.5 C 314.433,470.234 314.6,473.234 310,476.5C 309.502,473.518 309.335,470.518 309.5,467.5 Z"/></g>
<g><path style="opacity:1" fill="#7e7e7e" d="M 378.5,462.5 C 379.461,464.265 379.795,466.265 379.5,468.5C 376.833,468.5 374.167,468.5 371.5,468.5C 373.607,467.532 375.941,467.198 378.5,467.5C 378.5,465.833 378.5,464.167 378.5,462.5 Z"/></g>
<g><path style="opacity:1" fill="#181818" d="M 337.5,468.5 C 343.665,468.501 346.665,471.668 346.5,478C 346.129,480.856 345.629,483.689 345,486.5C 343.741,490.223 341.408,491.223 338,489.5C 337.5,482.508 337.334,475.508 337.5,468.5 Z"/></g>
<g><path style="opacity:1" fill="#161616" d="M 309.5,481.5 C 312.734,481.237 314.068,482.737 313.5,486C 314.068,489.263 312.734,490.763 309.5,490.5C 309.5,487.5 309.5,484.5 309.5,481.5 Z"/></g>
</svg>
